<svg width="17" height="17" fill="none" xmlns="http://www.w3.org/2000/svg"><path fill-rule="evenodd" clip-rule="evenodd" d="M7.177.907a1.418 1.418 0 0 1 2.646 0l1.499 3.629a.723.723 0 0 0 .595.45l3.774.365c1.258.122 1.767 1.754.817 2.623l-2.847 2.607a.77.77 0 0 0-.227.73l.833 3.853c.278 1.285-1.054 2.294-2.14 1.621l-3.26-2.017a.695.695 0 0 0-.735 0l-3.259 2.017c-1.086.673-2.418-.336-2.14-1.62l.833-3.855a.77.77 0 0 0-.227-.729L.492 7.974c-.95-.87-.441-2.501.817-2.623l3.774-.365a.723.723 0 0 0 .595-.45l1.5-3.629Zm1.323.594L7 5.13A2.17 2.17 0 0 1 5.217 6.48l-3.774.365L4.29 9.454a2.31 2.31 0 0 1 .681 2.186l-.833 3.854 3.259-2.017c.68-.42 1.526-.42 2.206 0l3.259 2.017-.833-3.854a2.31 2.31 0 0 1 .681-2.186l2.848-2.608-3.774-.365A2.17 2.17 0 0 1 9.999 5.13L8.5 1.5Z" fill="#F66B0E"/></svg>