<svg xmlns="http://www.w3.org/2000/svg" viewBox="0 0 500 500"><path d="m87.59 236.2-13.12.28-6.66.11c-2.23 0-4.47 0-6.7.06h-.44v-.45l-.06-11.2v-.5h.5l13.24.06c4.42 0 8.83.12 13.24.17h.28v.27c0 1.9-.09 3.79-.13 5.65Zm0 0-.14-5.65c0-1.87-.11-3.71-.13-5.54l.27.27c-4.41.06-8.82.16-13.24.17l-13.24.06.5-.5v11.19l-.45-.44c2.18 0 4.36 0 6.55.05l6.58.11ZM72.82 250.31l-13.12.28-6.7.11c-2.23.05-4.47 0-6.7.06h-.4v-.45l-.06-11.19v-.5h.5l13.24.06c4.41 0 8.83.12 13.24.17h.28v.27c0 1.9-.08 3.79-.13 5.65Zm0 0-.14-5.65c-.05-1.87-.11-3.71-.13-5.54l.27.27c-4.41.05-8.83.16-13.24.17l-13.24.06.5-.5-.05 11.19-.45-.45c2.18 0 4.36 0 6.55.06l6.58.11ZM453.66 250.31l-13.13.28-6.66.11c-2.22.05-4.46 0-6.69.06h-.45v-.45l-.05-11.19v-.5h.5l13.24.06c4.41 0 8.83.12 13.24.17h.27v.27c0 1.9-.08 3.79-.13 5.65Zm0 0-.14-5.65c0-1.87-.12-3.71-.13-5.54l.27.27c-4.41.05-8.83.16-13.24.17l-13.24.06.5-.5-.06 11.19-.44-.45c2.18 0 4.36 0 6.54.06l6.58.11ZM438.89 51.85l-13.13.27-6.66.12H412V40.1h.51l13.24.06c4.41 0 8.82.11 13.24.16h.27v.27c0 1.89-.09 3.78-.13 5.65Zm0 0-.14-5.66c-.05-1.86-.12-3.7-.14-5.53l.28.27c-4.42 0-8.83.16-13.24.16l-13.24.06.5-.49-.06 11.19-.44-.45c2.18 0 4.35 0 6.54.05l6.58.12ZM453.66 66l-13.13.28-6.66.12c-2.22 0-4.46 0-6.69.05h-.45V66l-.05-11.18v-.51h.5l13.24.06c4.41 0 8.83.11 13.24.16h.27v.27c0 1.89-.08 3.78-.13 5.65Zm0 0-.14-5.65c0-1.86-.12-3.7-.13-5.53l.27.27c-4.41.05-8.83.16-13.24.16l-13.24.06.5-.49-.06 11.18-.44-.44h6.54l6.58.12ZM218.91 135.1l-13.13.28-6.66.11c-2.23 0-4.46 0-6.7.06H192V123.41h.5l13.24.07c4.42 0 8.83.11 13.24.16h.28v.27c0 1.9-.09 3.79-.13 5.66Zm0 0-.15-5.65c0-1.86-.11-3.71-.13-5.54l.27.28c-4.41 0-8.82.15-13.24.16l-13.24.06.5-.5v11.19l-.45-.44c2.19 0 4.36 0 6.55.05l6.58.11ZM233.68 149.21l-13.13.28-6.66.11c-2.22.05-4.46 0-6.69.06h-.45v-.45L206.7 138v-.5h.51l13.24.07c4.41 0 8.82.11 13.24.16h.31v.27c0 1.9-.09 3.79-.13 5.66Zm0 0-.15-5.65c0-1.86-.11-3.71-.13-5.54l.28.28c-4.42 0-8.83.15-13.24.16l-13.24.06.5-.5-.06 11.19-.44-.44h6.54l6.58.11ZM203.91 149.21l-13.12.28-6.67.11c-2.22.05-4.46 0-6.69.06H177V137.52h.5l13.24.07c4.41 0 8.83.11 13.24.16h.28v.25c0 1.9-.08 3.79-.13 5.66Zm0 0-.14-5.65c-.05-1.86-.11-3.71-.13-5.54l.27.28c-4.41 0-8.83.15-13.24.16l-13.24.06.5-.5-.05 11.19-.45-.44h6.55l6.58.11ZM87.59 51.85l-13.12.27-6.66.12H60.67v-.44l-.06-11.19v-.51h.5l13.24.06c4.42 0 8.83.11 13.24.16h.28v.27c0 1.89-.09 3.78-.13 5.65Zm0 0-.14-5.66c0-1.86-.11-3.7-.13-5.53l.27.27c-4.41 0-8.82.16-13.24.16l-13.24.06.5-.49v11.19l-.45-.45c2.18 0 4.36 0 6.55.05l6.58.12ZM321.85 217.76h97.79v181.87h-97.79z" style="fill:#ebebeb"/><path style="fill:#dbdbdb" d="M317.12 212.74h107.26v5.02H317.12z"/><path style="fill:#ebebeb" d="M424.38 212.74h33.73v5.02h-33.73z"/><path style="fill:#dbdbdb" d="M419.64 217.76h33.13v181.87h-33.13z"/><path d="M409.12 334.87h-76.74V291.5h76.74Zm-76.49-.25h76.24v-42.87h-76.24Z" style="fill:#c7c7c7"/><path style="fill:#c7c7c7" d="M360.04 304.18h14.94v8.59h-14.94z"/><path d="M379.52 312.24h-15.19v-7.54h15.19Zm-14.94-.24h14.69v-7h-14.69ZM409.12 389.35h-76.74V346h76.74Zm-76.49-.25h76.24v-42.87h-76.24Z" style="fill:#c7c7c7"/><path style="fill:#c7c7c7" d="M360.04 358.66h14.94v8.59h-14.94z"/><path d="M379.52 366.72h-15.19v-7.54h15.19Zm-14.94-.25h14.69v-7h-14.69Z" style="fill:#c7c7c7"/><path style="fill:#a6a6a6" d="M332.5 237.14h76.49v43.12H332.5z"/><path style="fill:#c7c7c7" d="M343.32 226.1h58.23v42.21h-58.23zM363.89 221.73h-20.57v4.37h21.75l-1.18-4.37z"/><path style="fill:#a6a6a6" d="M401.39 268.31h-58.23l-4.49-38.71h58.23l4.49 38.71zM358.78 225.59h-20.57l.46 4.01h21.76l-1.65-4.01z"/><path style="fill:#ebebeb" d="M295.66 237.14h76.49v43.12h-76.49z"/><path d="M372.27 280.39h-76.74V237h76.74Zm-76.49-.25H372v-42.87h-76.22Z" style="fill:#c7c7c7"/><path style="fill:#c7c7c7" d="M323.19 249.7h14.94v8.59h-14.94z"/><path d="M342.67 257.76h-15.19v-7.54h15.19Zm-14.94-.25h14.69v-7h-14.69Z" style="fill:#c7c7c7"/><path style="fill:#dbdbdb" d="M372.33 243.61h36.66v36.66h-36.66z"/><path transform="rotate(180 117.83 117.815)" style="fill:#ebebeb" d="M52.05 113.91H183.6v7.81H52.05z"/><path style="fill:#ebebeb" d="M165.81 121.72h7.81v25.84h-7.81z"/><path style="fill:#dbdbdb" d="M165.81 121.72h7.81v7.99h-7.81z"/><path style="fill:#ebebeb" d="M62.03 121.72h7.81v25.84h-7.81z"/><path style="fill:#dbdbdb" d="M62.03 121.72h7.81v7.99h-7.81z"/><path transform="rotate(90 144.09 89.02)" style="fill:#c7c7c7" d="M119.2 82.75h49.78v12.54H119.2z"/><path transform="rotate(90 144.09 64.2)" style="fill:#dbdbdb" d="M141.35 57.93h5.47v12.54h-5.47z"/><path transform="rotate(90 144.09 74.96)" style="fill:#dbdbdb" d="M143.07 68.69h2.03v12.54h-2.03z"/><path transform="rotate(90 143.305 104.645)" style="fill:#dbdbdb" d="M140.57 97.6h5.47v14.1h-5.47z"/><path transform="rotate(90 133.44 84.88)" style="fill:#dbdbdb" d="M104.4 80.49h58.07v8.76H104.4z"/><path transform="rotate(90 133.475 72.465)" style="fill:#ebebeb" d="M122.31 69.84h22.34v5.26h-22.34z"/><path transform="rotate(135.33 90.451 90.4)" style="fill:#c7c7c7" d="M61.42 86.01h58.07v8.76H61.42z"/><path transform="rotate(135.33 87.417 93.36)" style="fill:#dbdbdb" d="M76.25 90.73h22.34v5.26H76.25z"/><path transform="rotate(90 121.625 91.865)" style="fill:#a6a6a6" d="M99.57 84.43h44.11v14.88H99.57z"/><path transform="rotate(90 121.63 107.19)" style="fill:#c7c7c7" d="M119.57 99.75h4.11v14.88h-4.11z"/><path transform="rotate(90 121.625 101.635)" style="fill:#c7c7c7" d="M120.83 94.2h1.59v14.88h-1.59z"/><path transform="rotate(90 155.495 93.195)" style="fill:#a6a6a6" d="M134.77 88.05h41.46v10.28h-41.46z"/><path transform="rotate(90 155.495 107.595)" style="fill:#c7c7c7" d="M153.56 102.46h3.86v10.28h-3.86z"/><path transform="rotate(90 155.495 82.945)" style="fill:#c7c7c7" d="M153.56 77.8h3.86v10.28h-3.86z"/><path transform="rotate(90 155.5 88.27)" style="fill:#c7c7c7" d="M154.75 83.13h1.5v10.28h-1.5z"/><path style="fill:#dbdbdb" d="m235.31 142.41 55.74-11.24-9.14-38.25-55.74 11.24 9.14 38.25z"/><path style="fill:#dbdbdb" d="m261.27 92.93 19.69-3.97.95 3.96-20.83 4.2.19-4.19z"/><path style="fill:#ebebeb" d="m235.37 142.4 55.74-11.24-4.68-35.82-55.74 11.24 4.68 35.82z"/><path style="fill:#ebebeb" d="m266.25 95.6 19.7-3.97.48 3.71-20.82 4.2.64-3.94z"/><path style="fill:#dbdbdb" d="m356.95 177.27 62.84 29.8 19.05-44.18L376 133.1l-19.05 44.17z"/><path style="fill:#dbdbdb" d="m418.61 147.79 22.2 10.53-1.97 4.57-23.48-11.13 3.25-3.97z"/><path style="fill:#ebebeb" d="m357.01 177.31 62.85 29.79 21.64-38.53-62.84-29.79-21.65 38.53z"/><path style="fill:#ebebeb" d="m421.54 154.05 22.21 10.53-2.25 3.99-23.48-11.13 3.52-3.39z"/><path style="fill:#263238" d="m41.45 399.52 52.14-.25 52.14-.08 104.27-.17 104.27.16 52.14.09 52.14.25-52.14.24-52.14.09-104.27.16-104.27-.16-52.14-.09-52.14-.24z"/><ellipse cx="250" cy="459.05" rx="184.58" ry="13.76" style="fill:#ebebeb"/><path d="M411.9 320.43c-6.64-13.65-18.26-20.66-31.35-16.78s-15.12 22.12-5.34 26.73 19.54-8.85 24.7-11.61 11.99 1.66 11.99 1.66Z" style="fill:#112b3c"/><path d="M418.33 356.75c0-1.65-.1-3.29-.16-4.94-.12-3.28-.23-6.56-.35-9.85-.22-6-.87-11.9-3.36-17.44a27 27 0 0 0-10.53-12.13 21.79 21.79 0 0 0-5.53-2.39 12.88 12.88 0 0 0-6.46-3.55 26.15 26.15 0 0 0-9.21-.23c-.11 0-.11.18 0 .17a22.06 22.06 0 0 1 8.71.62 17.39 17.39 0 0 1 3.51 1.37 15.49 15.49 0 0 1 2 1.28 18.94 18.94 0 0 0-8 .08 18 18 0 0 0-2.77.92 8.51 8.51 0 0 0-2.18-.19 13 13 0 0 0-2.84.41 21.36 21.36 0 0 0-5.39 2.35c-.09 0 0 .2.1.15a19.72 19.72 0 0 1 5.25-2 16.44 16.44 0 0 1 2.7-.4h1.51a17.38 17.38 0 0 0-8.47 8.44c0 .1.11.18.15.08a15.92 15.92 0 0 1 10.79-8.65c.29-.07.58-.11.88-.17a10.21 10.21 0 0 0-.14 1.32c-.09.67-.2 1.33-.34 2a32.73 32.73 0 0 1-1.06 4 31.77 31.77 0 0 1-1.59 3.87 18.5 18.5 0 0 1-2.21 3.74.09.09 0 1 0 .14.1c.78-1.23 1.7-2.37 2.42-3.65a27.47 27.47 0 0 0 1.77-3.81 25.14 25.14 0 0 0 1.17-4.09c.14-.73.26-1.47.34-2.22a5.09 5.09 0 0 0 .09-1.35 18.09 18.09 0 0 1 4.65-.1c-.59 3.26-1.21 6.65-3 9.48-.06.09.1.18.15.08a39.82 39.82 0 0 0 2.25-4.65 17.63 17.63 0 0 0 1.12-4.85 21.45 21.45 0 0 1 7.69 2.57 25.38 25.38 0 0 1 10.23 11.2 42.13 42.13 0 0 1 3.79 16.05c.44 7 .53 14 1.23 20.94 0 .45.76.61.85.09a25 25 0 0 0 .1-4.65ZM403 311.29a7.35 7.35 0 0 0-1.5-1.39c-.55-.45-1.11-.89-1.69-1.28a12.58 12.58 0 0 0-3.77-1.75c-.11 0-.15.14 0 .17a10 10 0 0 1 3.72 1.83c.55.4 1.09.84 1.6 1.29a9.93 9.93 0 0 0 1.53 1.3.12.12 0 0 0 .11-.17Z" style="fill:#263238"/><path d="M381.8 316.24a38.74 38.74 0 0 0-3.05 4 24.12 24.12 0 0 0-2.26 4.48c0 .05.05.08.08 0a53.15 53.15 0 0 1 5.35-8.43c.08-.02-.05-.14-.12-.05ZM396.08 314.89a9.79 9.79 0 0 1-.75 2.47 15.87 15.87 0 0 1-1.27 2.18.05.05 0 0 0 .08.06 8.92 8.92 0 0 0 2.11-4.67c.01-.11-.15-.15-.17-.04Z" style="fill:#263238"/><path d="M417.4 320.76s9.4-11.81 27.54-7.62c17.24 4 25.2 35.6 7.78 39.38S438.37 327 432 322.08c-4.64-3.65-11.34-2.87-14.6-1.32Z" style="fill:#112b3c"/><path d="M459 330.4a35.9 35.9 0 0 0-3.74-2.86 16.47 16.47 0 0 0-4-2 23.14 23.14 0 0 0-7.85-7.41h.54a27.86 27.86 0 0 1 2.89 0 16.2 16.2 0 0 1 5.59 1.4c.11 0 .18-.12.08-.16a25.53 25.53 0 0 0-5.59-1.68 15.84 15.84 0 0 0-2.83-.25q-.76 0-1.53.09h-.29a24.14 24.14 0 0 0-5.23-1.93c.17 0 .34-.1.51-.13a24.17 24.17 0 0 1 2.68-.45 21 21 0 0 1 5.43.09c.11 0 .14-.16 0-.17a33.46 33.46 0 0 0-5.48-.23 23 23 0 0 0-4.57.6 24.16 24.16 0 0 0-3.3-.38c-6.33-.27-13.23 2.1-17.12 7.29s-4.66 12.15-5.35 18.43a140.87 140.87 0 0 0-.69 26.37c0 .52.77.42.79-.07.23-7.46.5-14.91 1.21-22.34.33-3.44.7-6.9 1.27-10.31a30.55 30.55 0 0 1 2.5-8.48 15.49 15.49 0 0 1 6.12-6.58 20.61 20.61 0 0 1 8.68-2.67 23.48 23.48 0 0 1 8.14.76 5.1 5.1 0 0 0-.05 1.61 8.92 8.92 0 0 0 .4 2 9.45 9.45 0 0 0 .76 1.76c.33.62.75 1.18 1.13 1.77.06.1.21 0 .14-.1a8.3 8.3 0 0 1-1.41-3.57 14.35 14.35 0 0 1-.21-1.85v-1.4a23.76 23.76 0 0 1 7.92 4.18c.44.35.87.72 1.28 1.11a8.52 8.52 0 0 0-1.53 1.89 18.4 18.4 0 0 0-1.62 2.87 24.5 24.5 0 0 0-1.67 6.31.09.09 0 0 0 .17 0 18.24 18.24 0 0 1 2.06-6 23.1 23.1 0 0 1 1.61-2.65c.3-.44.62-.87.95-1.29.18-.23.37-.45.54-.7a25.06 25.06 0 0 1 5.15 7.25 12.49 12.49 0 0 0-2.12 3.06 27.23 27.23 0 0 0-1.7 3.63 60.94 60.94 0 0 0-2.17 7.4.09.09 0 0 0 .17 0 31.18 31.18 0 0 1 2.58-7.29q.81-1.69 1.71-3.36a30.29 30.29 0 0 0 1.71-3.17 23.37 23.37 0 0 1 2.07 8.4c0 .12.18.1.17 0a29.31 29.31 0 0 0-4.07-12.9c1.11.48 2.22.93 3.29 1.51a18.3 18.3 0 0 1 3.77 2.65c.03.16.11.03.11-.05Z" style="fill:#263238"/><path d="M445.65 331.07c-.55 1.79-1.23 3.53-1.72 5.34a20.54 20.54 0 0 0-.8 5.34c0 .05.07.05.08 0a51.81 51.81 0 0 1 2.6-10.62.09.09 0 1 0-.16-.06ZM457.14 326.63a10.22 10.22 0 0 0-2.4-1.72 18.35 18.35 0 0 0-2.78-1c-.11 0-.15.15 0 .17a10.9 10.9 0 0 1 2.67 1.1 20.21 20.21 0 0 1 2.47 1.52.06.06 0 0 0 .04-.07Z" style="fill:#263238"/><path d="M426.33 305s1.74-21.22 17.52-28.1c13.17-5.74 20.71 9.06 11.4 18.13-7.54 7.31-19.62 3.97-28.92 9.97Z" style="fill:#112b3c"/><path d="M452.33 281a65.25 65.25 0 0 0-7 3.33 51.8 51.8 0 0 0-5.44 3.61c.26-.54.49-1.1.75-1.62.41-.82.85-1.62 1.34-2.4a22.4 22.4 0 0 1 3.48-4.4c.08-.08-.05-.2-.13-.12a35.31 35.31 0 0 0-3.66 4.26 24.72 24.72 0 0 0-1.5 2.4 10 10 0 0 0-1.06 2.44 1.09 1.09 0 0 1-.17.13 52 52 0 0 0-7.54 7.37c.05-.2.09-.41.14-.6q.45-1.56 1-3.09a26.53 26.53 0 0 1 2.85-6.19c.06-.09-.09-.18-.15-.08a49.77 49.77 0 0 0-3.3 6 21.89 21.89 0 0 0-1.09 3.13 13.82 13.82 0 0 0-.52 2.13c-.68.87-1.36 1.75-2 2.66-6.77 9.64-10.17 21.31-11 33a101.18 101.18 0 0 0-.17 10.45 65.75 65.75 0 0 0 .92 10.49.19.19 0 0 0 .38-.06c-.07-3.06-.39-6.12-.45-9.19a91.32 91.32 0 0 1 .3-9.21 85.47 85.47 0 0 1 3.44-18.06 64.88 64.88 0 0 1 8-17c.66-.13 1.32-.31 2-.48s1.57-.4 2.36-.62a23.92 23.92 0 0 0 4.4-1.61c.09-.05 0-.21-.09-.15a14.12 14.12 0 0 1-4.47 1.54c-1.23.24-2.51.41-3.75.69a57.2 57.2 0 0 1 3.67-4.82 27.7 27.7 0 0 0 9-.67 37.47 37.47 0 0 0 4.59-1.43c1.58-.61 3.08-1.39 4.64-2.05a.09.09 0 1 0-.08-.15 26.57 26.57 0 0 1-9.09 3 57.94 57.94 0 0 1-8.52.7c1.12-1.29 2.28-2.54 3.52-3.72 4.14-3.94 9.06-7.57 14.52-9.46.04-.03-.02-.15-.12-.15Z" style="fill:#263238"/><path d="M439.49 281.06a23.92 23.92 0 0 0-1.93 2.83 14.45 14.45 0 0 0-1.39 3.29s0 .06.06 0c.53-1 1-2.12 1.5-3.15a15.64 15.64 0 0 1 1.89-2.87c.07-.07-.06-.16-.13-.1ZM454.16 288.12a15.76 15.76 0 0 1-3.23 1.35 28.67 28.67 0 0 1-3.3.89v.09a16 16 0 0 0 3.41-.75 28.48 28.48 0 0 0 3.19-1.43c.12-.05.03-.2-.07-.15Z" style="fill:#263238"/><path d="M414.07 301.16c-.1.92-2.39-7.7-15.73-15.35-12.12-7-26.58-25-14.7-36.46 9.59-9.22 34.85 10.88 30.43 51.81Z" style="fill:#112b3c"/><path d="M423.25 350.6a236 236 0 0 0-2.12-26.83 121.44 121.44 0 0 0-5.63-24c-1-2.8-2.13-5.56-3.36-8.28a18.69 18.69 0 0 0-.06-3.18c-.06-1.35-.18-2.71-.31-4.06s-.26-2.71-.42-4.06-.45-2.7-.51-4.05c0-.12-.19-.1-.17 0a28 28 0 0 1 .48 4.29c.11 1.31.18 2.62.22 3.93s0 2.63 0 3.94c0 .47 0 1-.05 1.48-1.25-2.65-2.6-5.26-4.05-7.8.9-5.53-.27-11.31-1.4-16.72 0-.11-.19-.06-.17.05a46.57 46.57 0 0 1 .88 8.57c.05 2.27-.05 4.55-.06 6.82-.32-.55-.64-1.09-1-1.63q-2.59-4.24-5.54-8.28a13 13 0 0 0-.13-3.94 30.49 30.49 0 0 0-1-4.31 43.68 43.68 0 0 0-1.47-4.16c-.58-1.41-1.35-2.73-1.91-4.14a.09.09 0 1 0-.16.07 20.16 20.16 0 0 1 1.67 4.18 37.29 37.29 0 0 1 1.1 4.15c.28 1.41.51 2.82.71 4.24.13.93.21 1.91.37 2.85a102.93 102.93 0 0 0-9.34-10.87c-.08-.08-.19.05-.12.13a122.47 122.47 0 0 1 13.56 18.45l.43.74c-.73-.46-1.58-.82-2.27-1.21q-1.93-1.08-3.89-2.13l-3.78-2.07c-.64-.36-1.28-.73-1.94-1.07a15.5 15.5 0 0 1-2.26-1.25c-.1-.08-.21.08-.1.13 1.28.71 2.42 1.76 3.66 2.55s2.51 1.56 3.8 2.28c2.38 1.33 4.95 2.28 7.29 3.65 1.62 2.83 3.11 5.74 4.49 8.7q-2.13-1.36-4.34-2.59-1.41-.79-2.85-1.56a13.36 13.36 0 0 1-2.69-1.62.09.09 0 0 0-.12.13 25.69 25.69 0 0 0 5.13 3.56c1.71 1 3.45 2 5.23 2.84 1.42 3.13 2.72 6.31 3.86 9.55 5.61 15.9 7.68 32.78 8.66 49.54.3 5 .45 10 .51 15s-.2 10-.19 15c0 .14.24.18.26 0 .6-4.43.71-8.94.9-13.41s.3-9.06.2-13.6Z" style="fill:#263238"/><path d="M399 278.62a66.06 66.06 0 0 1-7.09-3.67 76.32 76.32 0 0 1-6.73-4.27s-.08 0 0 .06a56.65 56.65 0 0 0 6.46 4.52 65.57 65.57 0 0 0 7.32 3.51c.04.04.15-.11.04-.15ZM402.88 260.64c-.2-.77-.44-1.53-.71-2.29a.08.08 0 0 0 0-.09c-.17-.43-.35-.86-.52-1.28a1.26 1.26 0 0 0-.07-.16 2.44 2.44 0 0 0-.1-.24s.09.3.13.44a2.33 2.33 0 0 0 .07.25 63.62 63.62 0 0 1 2 9.06c0 .09.16.1.16 0a31.43 31.43 0 0 0-.96-5.69Z" style="fill:#263238"/><path style="fill:#37474f" d="m437.35 353.82-.96 11.28-2.91 34.42h-31.22l-2.91-34.42-.95-11.28h38.95z"/><path style="fill:#263238" d="m437.35 353.82-.96 11.28h-37.04l-.95-11.28h38.95z"/><path style="fill:#37474f" d="M395.34 349.29h45.07v10.82h-45.07z"/><path d="m232.55 275.28-.41-.62c.49-.33 1-.66 1.43-1l.43.61c-.46.34-.95.73-1.45 1.01Zm5.33-4.24-.52-.53a28.43 28.43 0 0 0 2.61-2.95l.59.45a26 26 0 0 1-2.68 2.99Zm5.29-7.37-.68-.32a22.45 22.45 0 0 0 1.33-3.69l.73.19a24.07 24.07 0 0 1-1.38 3.82Zm2.24-8.8-.74-.07c.11-1.23.17-2.53.17-4h.75c0 1.5-.06 2.82-.18 4.07Zm-.72-9c-.06-1-.12-2-.19-3l-.06-1 .75-.05.06 1c.07 1 .13 2 .19 3Zm-.5-9v-4.02h.75V236.83Zm1.1-9-.74-.1a37.7 37.7 0 0 1 .73-4l.73.18a38.32 38.32 0 0 0-.72 3.97Zm41.43-3.77a9.09 9.09 0 0 1-1.15-.07l.08-.74a9.87 9.87 0 0 0 1.07.06 8.44 8.44 0 0 0 2.7-.44l.24.71a9 9 0 0 1-2.94.48Zm-6-1.85a17.31 17.31 0 0 1-3.05-2.72l.56-.5a16.17 16.17 0 0 0 2.91 2.6Zm13.06-1.68-.61-.44a7.67 7.67 0 0 0 1.38-3.51l.74.09a8.49 8.49 0 0 1-1.47 3.91Zm-46.31-1.3-.69-.28a31.36 31.36 0 0 1 1.76-3.64l.65.37a32.33 32.33 0 0 0-1.68 3.6Zm27.17-3.78c-.69-1.1-1.36-2.28-2-3.52l.67-.34a38.86 38.86 0 0 0 1.95 3.45Zm19.19-3.49a12 12 0 0 0-2.17-3.19l.55-.51a12.64 12.64 0 0 1 2.3 3.39Zm-41.83-.28-.58-.48a27.69 27.69 0 0 1 2.81-2.92l.5.56a26.17 26.17 0 0 0-2.73 2.84Zm18.65-4.32c-.47-1.24-.9-2.53-1.27-3.83l.72-.21c.37 1.28.79 2.55 1.25 3.77Zm-12-1.46-.39-.64a27.71 27.71 0 0 1 3.59-1.86l.3.69a27.56 27.56 0 0 0-3.43 1.81Zm29.12-.17c-.34-.21-.69-.41-1-.61-.8-.43-1.63-.82-2.47-1.17l.29-.69c.86.36 1.71.76 2.53 1.2l1.09.63Zm-20.94-3.18-.17-.73a29.86 29.86 0 0 1 4-.64l.07.74a30.3 30.3 0 0 0-3.83.63Zm12.72-.08a28.44 28.44 0 0 0-3.9-.58l.06-.75a30.07 30.07 0 0 1 4 .6Zm-11.39-3.83c-.26-1.3-.47-2.64-.63-4l.74-.09c.16 1.31.37 2.63.63 3.92Zm-1-9v-4.03h.75V189.62Zm1.17-8.94-.74-.1c.17-1.33.4-2.67.67-4l.73.15c-.21 1.32-.43 2.64-.61 3.96Zm1.88-8.73-.72-.22c.39-1.28.83-2.56 1.31-3.81l.7.27c-.42 1.24-.85 2.51-1.24 3.75Zm3.29-8.3-.68-.33c.6-1.2 1.24-2.4 1.91-3.55l.65.38c-.62 1.15-1.25 2.32-1.83 3.51Zm4.56-7.68-.61-.43c.75-1.08 1.57-2.16 2.41-3.22l.59.47c-.79 1.06-1.59 2.15-2.34 3.15Zm5.67-6.89-.53-.53c.93-.94 1.94-1.86 3-2.72l.48.58a39.34 39.34 0 0 0-2.9 2.68Zm6.93-5.59-.41-.63c1.11-.72 2.28-1.4 3.47-2l.36.66c-1.08.6-2.28 1.27-3.37 1.98Zm7.9-4.13-.29-.69c1.21-.51 2.48-1 3.77-1.42l.24.71c-1.22.44-2.47.91-3.67 1.41Zm8.48-2.82-.18-.72c1.27-.33 2.59-.63 3.92-.89l.14.73c-1.26.28-2.57.57-3.83.89Zm8.8-1.7-.1-.74c1.3-.18 2.64-.33 4-.46l.07.75c-1.3.13-2.63.28-3.92.46Zm21.85-.35s-1.49-.2-4-.34l.05-.75c2.49.14 4 .34 4 .34Zm-12.92-.42v-.75c1.23 0 2.47-.07 3.7-.07h.32v.75h-.31c-1.21.01-2.48.04-3.66.08Z" style="fill:#263238"/><path d="M339.45 90.12c-10-12.36-11.36-22.63-13.36-26.71-2.65-5.43-14.4-8.14-22.29-13-5.66-3.41-11.8-11.04-13.15-9.54-.71.8 2.16 5.38 2.16 5.38s-1.73 2.49 3.09 6.47c0 0-.75 4.53 5.05 7.64 0 0-1.8 3.33 2.37 6.39 0 0-1.57 3.43 4.26 5.64 0 0-1.19 4.31 3.63 6.27a5.11 5.11 0 0 0 1.79 3.69c3.46 3.42 13.07 6.15 19.72 12.25 4.81 4.4 4.38 8.94 5.27 9.14a2.15 2.15 0 0 0 2.66-1.45s.07-10.61-1.2-12.17Z" style="fill:#ebebeb"/><path d="M338.52 93.31a8.32 8.32 0 0 0-.38-1.9 4.79 4.79 0 0 0-.91-1.45c-.81-.92-1.77-1.72-2.61-2.62a37.19 37.19 0 0 1-7.71-12.58c-.85-2.37-1.34-4.86-2.31-7.19a13.62 13.62 0 0 0-4.2-5.57 30 30 0 0 0-6-3.47c-2.26-1-4.54-2-6.73-3.21A56 56 0 0 1 295 45.75c-.46-.47-.92-.93-1.37-1.42-.05-.06-.13 0-.08.08a50.78 50.78 0 0 0 5.6 5.57 53.63 53.63 0 0 0 6.42 4.6 62.16 62.16 0 0 0 6.74 3.47 51.36 51.36 0 0 1 6.32 3.21 14.25 14.25 0 0 1 4.86 4.87c1.25 2.22 1.77 4.74 2.52 7.14a38 38 0 0 0 6.9 12.73c.78.94 1.61 1.85 2.48 2.71a8.65 8.65 0 0 1 2.35 2.83 10.06 10.06 0 0 1 .41 2c.11.74.21 1.47.32 2.21.22 1.44.41 2.89.66 4.32.13.73.25 1.46.39 2.19h.06c-.25-2.99-.67-5.97-1.06-8.95Z" style="fill:#c7c7c7"/><path d="M318.93 63.14c-3.13-1.07-6.26-2.15-9.33-3.39a71.25 71.25 0 0 1-8.84-4.16 37.11 37.11 0 0 1-4.66-3.07s-.07 0 0 0a40.78 40.78 0 0 0 3.9 2.89q2.12 1.32 4.34 2.41a77 77 0 0 0 9.24 3.63c1.77.6 3.55 1.17 5.33 1.73l.02-.04ZM322.67 68.31a43 43 0 0 0-8-3.59c-2.78-1-5.62-1.76-8.4-2.72a49.81 49.81 0 0 1-4.72-1.8s-.06 0 0 0c1.31.63 2.64 1.22 4 1.73s2.79 1 4.2 1.44c2.81.9 5.64 1.76 8.4 2.82a33.52 33.52 0 0 1 4.49 2.13s.06.01.03-.01ZM323.75 69.35v.05-.05ZM325.43 74.77a30 30 0 0 0-7.58-4.18 52 52 0 0 0-8.76-2.37c-1.73-.34-3.47-.61-5.22-.87v.05c3 .61 6 1.19 9 2a49.32 49.32 0 0 1 8.33 2.93 25.47 25.47 0 0 1 4.21 2.49s.03-.05.02-.05ZM327.27 78.11c-1.12-.71-2.25-1.42-3.4-2.09a25.87 25.87 0 0 0-3.52-1.79 18.14 18.14 0 0 0-3.76-1c-1.36-.22-2.74-.33-4.11-.47-1.55-.16-3.1-.3-4.65-.45l4.1.56c1.33.18 2.67.33 4 .53a22 22 0 0 1 3.85.91 33.13 33.13 0 0 1 3.68 1.58c1.31.64 2.56 1.43 3.81 2.19 0 .06.01.04 0 .03ZM332.27 86.4c-1.29-.76-2.57-1.53-3.82-2.35s-2.43-1.72-3.71-2.46a22.84 22.84 0 0 0-8.18-2.72 34.46 34.46 0 0 0-4.87-.34 41.77 41.77 0 0 1 8.53 1.47 22.36 22.36 0 0 1 4 1.6c1.3.68 2.5 1.53 3.73 2.32 1.39.9 2.82 1.75 4.29 2.51.03 0 .04-.03.03-.03Z" style="fill:#c7c7c7"/><path d="M331.27 84.81A37.45 37.45 0 0 0 326 81a27.67 27.67 0 0 0-6-2.72c-1.17-.37-2.37-.67-3.57-.93v.06a35.41 35.41 0 0 1 6.16 2.15 38.63 38.63 0 0 1 5.68 3 31.38 31.38 0 0 1 3 2.26s.01 0 0-.01ZM315.42 66.27c-3.2-1.76-6.93-2-10.45-2.68a30.8 30.8 0 0 1-3-.71c3.4 1.29 7.1 1.28 10.58 2.24a15 15 0 0 1 2.9 1.12s-.02.03-.03.03ZM320.5 63.59A72.27 72.27 0 0 0 308.29 58c-1.2-.41-2.4-.77-3.6-1.14 0 0-.05 0 0 .06 2.16.66 4.28 1.45 6.38 2.28s4.08 1.69 6.07 2.66c1.14.55 2.25 1.12 3.36 1.73 0 .02.01 0 0 0ZM326.44 76.8a21.46 21.46 0 0 0-4-2.56 23.28 23.28 0 0 0-4.5-1.63s-.05 0 0 .06a24.7 24.7 0 0 1 8.53 4.15s-.02-.01-.03-.02ZM337.21 95.28a20.21 20.21 0 0 0-5-5.06 37.06 37.06 0 0 0-6.37-3.54c-1.26-.56-2.55-1.08-3.84-1.59 0 0-.06 0 0 0a61.18 61.18 0 0 1 6.55 3.1 32.51 32.51 0 0 1 5.88 4.05 18.93 18.93 0 0 1 2.72 3s.08.06.06.04Z" style="fill:#c7c7c7"/><path d="M388.14 106.06c15.61-3.08 23.22-10.1 27.36-12 5.52-2.47 16.28 3 25.44 4.3 6.58 1 16.17-.91 16.22 1.08 0 1.08-5.1 2.75-5.1 2.75s-.27 3-6.51 3c0 0-2.33 4-8.78 2.64 0 0-.75 3.71-5.91 3.38 0 0-1 3.65-6.89 1.61 0 0-1.85 4.08-6.8 2.49a5.13 5.13 0 0 1-3.74 1.69c-4.84.41-14-3.64-23-3.22-6.5.31-9.08 4.06-9.89 3.65a2.16 2.16 0 0 1-1.12-2.82s6.74-8.17 8.72-8.55Z" style="fill:#ebebeb"/><path d="M386.81 109.11a8.34 8.34 0 0 1 1.5-1.22 4.78 4.78 0 0 1 1.64-.53c1.21-.19 2.46-.19 3.68-.34a37.34 37.34 0 0 0 14-4.73c2.17-1.27 4.15-2.87 6.38-4a13.53 13.53 0 0 1 6.77-1.57 29.17 29.17 0 0 1 6.82 1.17c2.41.64 4.78 1.35 7.22 1.84a56.16 56.16 0 0 0 15.9.76c.66-.06 1.31-.12 2-.21.08 0 .09.1 0 .12a51.83 51.83 0 0 1-7.87.69 53.15 53.15 0 0 1-7.87-.59 62.22 62.22 0 0 1-7.4-1.64 49.72 49.72 0 0 0-6.91-1.58 14.1 14.1 0 0 0-6.85.62c-2.38.91-4.39 2.51-6.51 3.87a37.71 37.71 0 0 1-13.46 5.35c-1.2.23-2.42.39-3.63.5a8.61 8.61 0 0 0-3.63.66 10 10 0 0 0-1.6 1.3l-1.72 1.42c-1.09 1-2.16 2-3.27 2.9l-1.7 1.43s-.06 0 0 0c2.07-2.16 4.3-4.18 6.51-6.22Z" style="fill:#c7c7c7"/><path d="M421.18 98.48c3.09 1.18 6.18 2.36 9.34 3.37a70.21 70.21 0 0 0 9.45 2.47 38.2 38.2 0 0 0 5.54.63 41.63 41.63 0 0 1-4.86-.34c-1.64-.23-3.27-.54-4.88-.93a75.89 75.89 0 0 1-9.42-3.13c-1.74-.68-3.47-1.37-5.2-2.09-.01.04.01.01.03.02ZM415 100.06a43.23 43.23 0 0 1 8.43 2.35c2.76 1 5.44 2.25 8.2 3.29 1.57.6 3.15 1.19 4.78 1.64 0 0 0 .06 0 0-1.42-.35-2.82-.75-4.19-1.23s-2.77-1-4.15-1.59c-2.73-1.1-5.46-2.26-8.26-3.21a33.29 33.29 0 0 0-4.81-1.24s0-.02 0-.01ZM413.5 100.16s0 .06 0 0-.03-.01 0 0ZM408.74 103.25a30.06 30.06 0 0 1 8.5 1.64 52.55 52.55 0 0 1 8.25 3.79c1.54.85 3.05 1.76 4.56 2.67v.05c-2.7-1.46-5.4-3-8.18-4.27a49.87 49.87 0 0 0-8.27-3.09 25.58 25.58 0 0 0-4.83-.77s-.04-.02-.03-.02ZM405.19 104.64c1.31.17 2.63.34 3.94.57a25.39 25.39 0 0 1 3.86.88 18.26 18.26 0 0 1 3.53 1.64c1.18.71 2.31 1.5 3.45 2.26 1.3.87 2.58 1.76 3.87 2.64v.05l-3.51-2.2c-1.13-.72-2.26-1.45-3.41-2.15a21.27 21.27 0 0 0-3.54-1.77 33.92 33.92 0 0 0-3.84-1.15c-1.42-.34-2.88-.53-4.33-.75-.04 0-.03-.02-.02-.02ZM396 107.8c1.48.25 2.95.47 4.43.64s3 .24 4.44.49a23.06 23.06 0 0 1 8 3.15 33.55 33.55 0 0 1 3.95 2.85s0 .06 0 0a41 41 0 0 0-7.45-4.37 21.84 21.84 0 0 0-4.1-1.34c-1.44-.31-2.9-.43-4.36-.61-1.64-.2-3.28-.46-4.9-.82-.01.03-.01.01-.01.01Z" style="fill:#c7c7c7"/><path d="M397.82 107.22a37.41 37.41 0 0 1 6.52.43 27.58 27.58 0 0 1 6.31 1.73A34 34 0 0 1 414 111s0 .06 0 0a35.74 35.74 0 0 0-6.12-2.29 38.52 38.52 0 0 0-6.3-1.31 30.78 30.78 0 0 0-3.72-.17l-.04-.01ZM421.87 103.13c3.59.7 6.63 2.86 9.75 4.63a28.66 28.66 0 0 0 2.77 1.39s0 .06 0 0c-3.45-1.18-6.28-3.56-9.58-5a14.48 14.48 0 0 0-2.93-1s-.02-.02-.01-.02ZM419.69 97.82a73.31 73.31 0 0 1 12.94 3.54c1.18.45 2.34.94 3.49 1.43 0 0 0 .07 0 0-2.08-.87-4.22-1.62-6.37-2.33s-4.22-1.32-6.36-1.85c-1.22-.3-2.45-.58-3.69-.82-.03.05-.03.03-.01.03ZM406.66 104.16a22.22 22.22 0 0 1 4.74.61 23.31 23.31 0 0 1 4.5 1.64s0 .06 0 0a24.87 24.87 0 0 0-9.21-2.28s-.04.03-.03.03ZM386.56 111.46a20.23 20.23 0 0 1 7.05-.71 36.25 36.25 0 0 1 7.15 1.36c1.34.38 2.66.81 4 1.24v.05a62.69 62.69 0 0 0-7-1.81 32.72 32.72 0 0 0-7.12-.65 18.13 18.13 0 0 0-4 .57s-.11-.04-.08-.05Z" style="fill:#c7c7c7"/><path style="fill:#112b3c" d="m374.21 151.65-51.89-16.18 20.77-66.61 38.53 12.01 9.4 16.86-16.81 53.92z"/><path style="fill:#fff;opacity:.4" d="m374.21 151.65-51.89-16.18 20.77-66.61 38.53 12.01 9.4 16.86-16.81 53.92z"/><path style="fill:#112b3c" d="m381.62 80.87 9.4 16.86-13.36-4.17 3.96-12.69z"/><path transform="rotate(-162.69 358.815 86.978)" style="fill:#fff" d="M343.71 86.07h30.22v1.79h-30.22z"/><path transform="rotate(-162.69 357.472 91.296)" style="fill:#fff" d="M342.37 90.39h30.22v1.79h-30.22z"/><path transform="rotate(-162.69 356.124 95.614)" style="fill:#fff" d="M341.02 94.7h30.22v1.79h-30.22z"/><path transform="rotate(-162.69 361.49 102.026)" style="fill:#fff" d="M339.36 101.11h44.28v1.79h-44.28z"/><path transform="rotate(-162.68 360.156 106.315)" style="fill:#fff" d="M338.01 105.43h44.28v1.79h-44.28z"/><path transform="rotate(-162.69 358.798 110.657)" style="fill:#fff" d="M336.67 109.75h44.28v1.79h-44.28z"/><path transform="matrix(-.95 -.3 .3 -.95 664.5 331.1)" style="fill:#fff" d="M335.32 114.07h44.28v1.79h-44.28z"/><path transform="matrix(-.95 -.3 .3 -.95 660.59 339.14)" style="fill:#fff" d="M333.97 118.38h44.28v1.79h-44.28z"/><path transform="rotate(-162.69 354.758 123.612)" style="fill:#fff" d="M332.63 122.7h44.28v1.79h-44.28z"/><path transform="rotate(-162.69 353.41 127.93)" style="fill:#fff" d="M331.28 127.02h44.28v1.79h-44.28z"/><path transform="rotate(-162.68 352.084 132.219)" style="fill:#fff" d="M329.94 131.34h44.28v1.79h-44.28z"/><path transform="rotate(-162.68 350.735 136.532)" style="fill:#fff" d="M328.59 135.65h44.28v1.79h-44.28z"/><path d="m90.73 450.72 194 .83c47.14-37 52-91.86 18.38-125.1-20.36-20.11-46.21-16.05-70.82-19.25h-.07c-8.57-1.12-17-3.12-25-7.33-25.34-13.37-39.63-44.9-60.95-71.43-2.66-3.33-5.43-6.56-8.35-9.68-17.53-18.72-52.42-19.33-70.68 7-46.37 66.85-25.13 166.39 23.49 224.96Z" style="fill:#112b3c"/><path d="m90.73 450.72 194 .83c47.14-37 52-91.86 18.38-125.1-20.36-20.11-46.21-16.05-70.82-19.25h-.07c-8.57-1.12-17-3.12-25-7.33-25.34-13.37-39.63-44.9-60.95-71.43-2.66-3.33-5.43-6.56-8.35-9.68-17.53-18.72-52.42-19.33-70.68 7-46.37 66.85-25.13 166.39 23.49 224.96Z" style="opacity:.2"/><path d="M86.43 297.71c5.08 79.58 97 109.28 154.37 85.44 49.91-20.73 33.57-68-8.55-75.95h-.07c-8.57-1.12-17-3.12-25-7.33-25.34-13.37-39.63-44.9-60.95-71.43-31.72-16.51-63.53 11.01-59.8 69.27Z" style="opacity:.1"/><path d="M433.05 460.89c-3.77.13-97.78-27.95-100.82-31.4-1.8-2 2.49-13.92 3.82-25.59.2-1.84-31.32-47.66-31.32-47.66l59.57-14.15L400.08 415s30.78 26.75 33.71 30.91 3.02 14.85-.74 14.98Z" style="fill:#c95f50"/><path d="M433 460.89c-3.75.13-97.77-27.95-100.81-31.39-1.8-2.05 2.5-13.93 3.82-25.6.05-.49-2.17-4.14-5.45-9.21l61 3.09 8.52 17.22s30.77 26.75 33.71 30.9 3.02 14.86-.79 14.99Z" style="fill:#ebebeb"/><path d="M435 461.45c-3.73.16-101.38-27.81-104.43-31.23-1.17-1.29 1.05-9 5.47-26.32l64 11.06s32.6 27.43 35.54 31.54 3.17 14.78-.58 14.95Z" style="fill:#112b3c"/><path d="M434.73 457.14c-16.25-5.09-82.29-24.09-98.74-27.89-.14 0-.16.06 0 .1 16 5.4 82.19 23.87 98.7 28.06.31.09.39-.16.04-.27ZM430.35 441.19a13.71 13.71 0 0 0-10.94 1.19 13.28 13.28 0 0 0-6.16 7.69c0 .1.15.16.2.06 2.77-6.14 10.21-10.1 16.84-8.73.13.02.19-.17.06-.21ZM406 418.41c-6.53-2-14.79-1.83-20.39 2.36-.22.16 0 .47.24.42a94.09 94.09 0 0 1 20-1.94.43.43 0 0 0 .15-.84ZM410.46 421.83c-6.53-2-14.78-1.83-20.39 2.36-.22.16 0 .47.24.42a94.15 94.15 0 0 1 20-1.94.43.43 0 0 0 .15-.84ZM415 425.25c-6.52-2-14.78-1.83-20.39 2.36-.21.16 0 .47.24.42a94.15 94.15 0 0 1 20-1.94.43.43 0 0 0 .15-.84ZM419.45 428.67c-6.53-2-14.79-1.83-20.39 2.36-.22.16 0 .47.24.42a94 94 0 0 1 20-1.94.43.43 0 0 0 .15-.84Z" style="fill:#263238"/><path d="M344.61 414.9c-7.35-2.09-10.61 9.34-3.24 11.43S352 417 344.61 414.9Z" style="fill:#fff"/><path d="M418.06 403c-2.53-3.7-7.48-2.21-10.34.06a35.85 35.85 0 0 0-10.72 15 .19.19 0 0 0 .15.25c0 .51.45 1.06 1 .86 5.59-1.89 11.8-3.22 16.64-6.76 2.82-2.08 5.66-5.96 3.27-9.41Zm-12 11.62c-2.73 1-5.49 1.86-8.17 2.95 2.1-2.92 4.07-5.93 6.47-8.65a37.89 37.89 0 0 1 3.66-3.73c2-1.76 10-5.39 8.65 1.93-.8 3.98-7.39 6.27-10.67 7.45Z" style="fill:#263238"/><path d="M380 415.83c5.45 2.51 11.8 2.57 17.66 3.3.6.08.93-.55.83-1.05a.18.18 0 0 0 .1-.27 35.73 35.73 0 0 0-13.59-12.6c-3.26-1.65-8.41-2.12-10.14 2-1.61 3.91 1.95 7.15 5.14 8.62Zm-2.9-4.83c-2.82-6.89 5.74-4.92 8.1-3.61a38.25 38.25 0 0 1 4.33 2.93 107.73 107.73 0 0 1 8.07 7.18c-2.85-.54-5.73-.82-8.6-1.26-3.42-.55-10.34-1.48-11.9-5.24Z" style="fill:#263238"/><path d="m383 373.74-9.42 5.39-30.4 17.39L326.6 406S297 348.8 283 333.45a22.3 22.3 0 0 0-2.57-2.44 12.89 12.89 0 0 0-4.56-1.08c-18.65-2-93.06 5.63-136.4 3.37l19.76-27.3 8.77-12.14c48.72-6.17 120.16-27.65 147.34-14.44 29.57 14.36 67.66 94.32 67.66 94.32Z" style="fill:#37474f"/><path d="M373.39 367.28c-9.51 5.11-6.85 3.51-16.3 8.72-4.63 2.55-27.91 15.31-31.83 18.4-.09.07 0 .22.1.19 4.68-1.75 27.68-15 32.26-17.64 9.36-5.38 6.62-3.93 15.92-9.41a.15.15 0 1 0-.15-.26Z" style="fill:#263238"/><path d="M343.21 396.52 326.6 406S297 348.8 283 333.45Z" style="fill:#263238"/><path d="M332.33 398.06c-7.27-11.83-40.45-70.24-46.94-72.48-5.91-2-135.3 2.67-137 2.7-.13 0-.14.2 0 .19 13.92-.35 133.23-2.86 136.32-1.69 6.4 2.44 46 70.19 47 71.6.23.38.87.08.62-.32Z" style="fill:#263238"/><path d="M106.14 309.06s-3.28 35.52 14.93 52.94c21.8 20.84 175.68 12.95 197.62 5.55s22.18-42.94-2-50.88c-23-7.55-136.42-10-138.84-10.92s-9.6-12.08-9.6-12.08Z" style="fill:#37474f"/><path d="M136.2 307.69c0-.17-.29-.11-.29.05a19.56 19.56 0 0 1-4.42 12.65c-3.33 3.93-8.27 6.18-12.75 8.51-.43.23-.1.9.35.76a39.8 39.8 0 0 0 7.92-3.53 19.3 19.3 0 0 0 5.92-5.05 17.11 17.11 0 0 0 3.27-13.39ZM176.85 303.55c-1-1.27-2.13-2.48-3.19-3.72-2.52-2.92-5-5.85-7.69-8.67-.25-.27-.72.12-.49.41 1.78 2.27 3.66 4.47 5.51 6.68q1.42 1.69 2.86 3.38a21.74 21.74 0 0 1 2.67 3.31c.7 1.26-.18 2.35-1.5 2.51a4.58 4.58 0 0 1-3.18-1.13c-2.07-1.54-3.72-3.78-5.45-5.68q-1.59-1.74-3.19-3.47c-1.15-1.22-2.36-2.38-3.5-3.59a.1.1 0 0 0-.15.12c1 1.33 1.93 2.73 2.93 4.07s2 2.66 3.05 4 2 2.46 3 3.65a12.34 12.34 0 0 0 3.05 2.67c1.9 1.08 5.18 1.28 6.15-1.16a3.42 3.42 0 0 0-.88-3.38Z" style="fill:#263238"/><path d="M315.67 367.72c-7.58.24-15.15.77-22.73 1s-15.05.39-22.58.41c-15.11 0-42 .46-57.12-.4-15.25-.86-31.7-2.18-46.86-4.08-7.26-.92-14.61-1.66-21.78-3.11a34.29 34.29 0 0 1-17.26-8.54c-9.92-9.38-13.9-23.31-15.63-36.65-.24-1.79-.43-3.58-.6-5.38a.09.09 0 1 0-.18 0c1 13.68 3.36 27.93 12.11 38.83a34.14 34.14 0 0 0 14.16 10.72c6.81 2.63 14.34 3.18 21.51 4.06 15.22 1.87 31.74 3.26 47 4.25s42.62.76 58.05.8 30.86-.38 46.25-1.33q2.82-.16 5.63-.43a.09.09 0 0 0 .03-.15Z" style="fill:#263238"/><path d="M335.51 334.33a24.37 24.37 0 0 0-10.34-14.4c-5.5-3.66-12.05-5.28-18.53-6.14-7.32-1-14.73-1.42-22.1-2.05-15.1-1.27-42-1.64-57.15-2.7s-47.67-3.17-49.5-3.22c-.15 0-.18.26 0 .28 14.59 1.44 27.87 2.66 42.49 3.81s41.19 1.57 55.87 2.84q11 .94 21.95 1.93c6.77.62 13.74 1.22 20.13 3.76 5.47 2.17 10.41 5.72 13.25 11a26.15 26.15 0 0 1 2.42 16.82 29.62 29.62 0 0 1-6.87 14.34 25.25 25.25 0 0 1-13.1 8.14c-1.34.3-3 .53-4.17.79-.09 0-.19.22-.09.22 10.92.14 20.92-8 24.74-18a29.2 29.2 0 0 0 1-17.42Z" style="fill:#263238"/><path d="M155.17 230.65c8.28 14.29 37.32 54.06 59.19 61 12 3.82 70.72 17.06 79.47 10.33 10.25-7.87 8.54-40.92 1-41.85-23-2.83-66.2-1.86-76.69-5.11-4.75-1.47-29-20.12-55.26-35.62-9.94-5.87-13.05 2.04-7.71 11.25Z" style="fill:#c95f50"/><path d="m175.44 264.93 11.73-32.3s-14.36-9.61-23.06-13.8c-11.5-5.55-16.26-2.58-10.12 11.83 4.11 9.64 21.45 34.27 21.45 34.27Z" style="fill:#c7c7c7"/><path d="M173.57 260.54c1.38-4.82 2.83-9.6 4.49-14.34.83-2.36 1.69-4.7 2.59-7s2-4.57 2.91-6.91c.05-.13.25 0 .2.08-1 2.29-1.67 4.74-2.53 7.08s-1.71 4.7-2.55 7.05c-1.67 4.71-3.35 9.42-4.91 14.16-.05.1-.24.01-.2-.12Z" style="fill:#263238"/><path d="m182.68 245-7.24 19.93S158.11 240.3 154 230.66c-1.9-4.45-2.75-7.81-2.7-10.16Z" style="fill:#263238"/><path d="M104.09 323.11c.23.23 86.55-19.9 87.34-20.92 1.1-1.43-15.25-66.32-31.83-85.53-4.15-4.8-17.14-4.29-22.89.69-28.5 24.65-33.45 104.93-32.62 105.76Z" style="fill:#ebebeb"/><path d="M155.23 214.09 135 219c.53-.54 1.06-1 1.6-1.5l16.22-3.88a15.12 15.12 0 0 1 2.41.47Zm3 1.39-25.81 6.19c-.4.46-.79.91-1.16 1.39l28-6.72a7 7 0 0 0-1.02-.86Zm2.51 2.62-31.43 7.55c-.33.43-.63.87-.93 1.32l33.08-7.97c-.23-.28-.46-.6-.71-.9Zm2 2.74-36 8.63c-.27.43-.54.86-.79 1.3l37.38-9c-.16-.3-.33-.61-.59-.93Zm1.77 2.79-39.91 9.58-.67 1.28 41.16-9.88Zm1.63 2.83-43.43 10.42-.6 1.25 44.57-10.69c-.18-.33-.37-.66-.54-.98Zm1.51 2.85L121 240.5c-.18.41-.35.82-.54 1.24l47.66-11.45Zm1.42 2.87-49.56 11.89c-.17.41-.33.81-.49 1.23l50.53-12.12c-.15-.35-.31-.68-.48-1Zm1.37 2.89-52.31 12.56c-.16.4-.31.81-.45 1.21l53.22-12.77c-.16-.34-.3-.67-.46-1Zm1.3 2.9-54.87 13.18c-.15.4-.29.81-.41 1.21L172.18 239c-.18-.36-.29-.7-.44-1Zm1.25 2.92-57.3 13.76c-.13.4-.26.79-.38 1.2l58.09-13.95c-.13-.34-.28-.68-.4-1.01Zm1.2 2.93-59.58 14.31-.36 1.2 60.34-14.5c-.13-.34-.27-.67-.4-1.01Zm1.16 3-61.74 14.81c-.11.41-.23.8-.34 1.2l62.47-15c-.13-.39-.25-.72-.39-1.06Zm1.12 2.94L112.67 265c-.11.39-.21.79-.31 1.19l64.49-15.5c-.12-.31-.25-.69-.38-.98Zm1.09 2.95-65.76 15.74c-.09.39-.19.78-.28 1.17l66.41-15.94c-.12-.34-.25-.68-.37-1.02Zm1.06 3L111 271.86q-.15.58-.27 1.17L179 256.65Zm1 3-69.44 16.66c-.09.39-.17.79-.26 1.18L180 259.63c-.1-.35-.22-.69-.34-1.03Zm1 3-71.15 17.09c-.08.39-.16.77-.23 1.16L181 262.61c-.1-.35-.21-.7-.34-1.04Zm1 3L108.84 282c-.07.39-.15.78-.22 1.16L182 265.59Zm1 3-74.4 17.69c-.07.39-.15.78-.2 1.16l74.9-18c-.1-.33-.21-.67-.31-1.02Zm.93 3-75.91 18.23c-.06.38-.13.77-.18 1.15l76.4-18.34c-.11-.53-.22-.87-.32-1.23Zm.91 3L107.1 292.1c-.07.39-.13.77-.19 1.15l77.85-18.68c-.1-.34-.2-.69-.31-1.04Zm.89 3L106.6 295.6c-.06.39-.11.77-.17 1.15l79.23-19c-.12-.52-.22-.86-.32-1.21Zm.85 3-80.07 19.22c-.05.39-.11.77-.16 1.15l80.53-19.33c-.09-.51-.19-.85-.31-1.21Zm.86 3-81.37 19.53c0 .39-.09.76-.14 1.14l81.8-19.63c-.11-.49-.2-.84-.3-1.19Zm.81 3-82.58 19.69c0 .38-.09.77-.13 1.15l83-19.92c-.1-.34-.16-.7-.3-1.05Zm.8 3-83.73 20.11c0 .39-.07.77-.11 1.13l84.1-20.19c-.09-.45-.18-.76-.27-1.16Zm.76 3L104.61 312l-.09 1.14 85.15-20.45c-.07-.35-.16-.69-.25-1.06Zm.73 3-85.81 20.6c0 .39-.06.77-.07 1.14l86.12-20.68c-.09-.38-.16-.77-.25-1.1Zm.67 3.07-86.69 20.81c0 .39 0 .77-.06 1.12l87-20.88c-.08-.37-.19-.71-.26-1.09Zm.56 3.08L104 321.8v1.1l87.45-21a10.5 10.5 0 0 0-.07-1.08Z" style="fill:#dbdbdb;fill-rule:evenodd"/><path d="M155.92 231.76c-3.93.5-12.75-6.19-16.47-12.14-.25-.41.14-4.88.35-10.35.12-3.31.17-7 0-10.38l21.46 3.91a53.87 53.87 0 0 0-1.26 13.08 8.29 8.29 0 0 0 .22 1.38 1.19 1.19 0 0 1 .05.22c.53 2.61 1.81 13.52-4.35 14.28Z" style="fill:#c95f50"/><path d="M160.17 217.26a2.14 2.14 0 0 1 .05.23 13.84 13.84 0 0 1-2.17.24c-12.05.42-15.85-14.07-16.72-18.56l19.92 3.63a54.43 54.43 0 0 0-1.31 13.08 9.69 9.69 0 0 0 .23 1.38Z" style="fill:#263238"/><path d="M156.39 230.79c-3.91.54-12.75-6.06-16.5-12-.26-.41.1-4.87.27-10.32.09-3.31.11-7-.11-10.35l21.43 3.74a53.47 53.47 0 0 0-1.2 13 7.11 7.11 0 0 0 .24 1.37v.23c.64 2.67 2 13.54-4.13 14.33Z" style="fill:#c95f50"/><path d="M160.52 216.32v.22a13.73 13.73 0 0 1-2.17.26c-12 .51-15.89-13.91-16.8-18.37l19.88 3.47a54.06 54.06 0 0 0-1.2 13 8.51 8.51 0 0 0 .29 1.42Z" style="fill:#263238"/><path d="M136 175.39c-1.14 7.75 6 28.57 12 32.54 8.68 5.77 21.29 4.55 25.78-5.52 4.35-9.76-5.43-36.72-12-40.17-9.64-5.08-24.12 1.76-25.78 13.15Z" style="fill:#c95f50"/><path d="M152.91 181.5c.57-.35 1.05-.77 1.58-1.17a3.18 3.18 0 0 0 1.38-1.5 1 1 0 0 0-.52-1.12 2.5 2.5 0 0 0-2.49.5 3.66 3.66 0 0 0-1.56 2.15 1.08 1.08 0 0 0 1.61 1.14ZM167.26 177.22c-.66.09-1.29.06-2 .09a3.19 3.19 0 0 1-2-.3 1 1 0 0 1-.3-1.19 2.5 2.5 0 0 1 2.24-1.19 3.72 3.72 0 0 1 2.57.68 1.09 1.09 0 0 1-.51 1.91ZM159 197.65a2.27 2.27 0 0 0 1.45.47 3.89 3.89 0 0 0 1.41-.83s.1 0 .08.05a2 2 0 0 1-1.56 1.33 1.59 1.59 0 0 1-1.5-.91c-.06-.08.04-.14.12-.11ZM159.17 193a5 5 0 0 0 3.88 1.16 6.35 6.35 0 0 0 1.76-.46 1.83 1.83 0 0 0 .32-.14 1.92 1.92 0 0 0 .29-.14.38.38 0 0 0 .19-.41.84.84 0 0 0-.06-.14v-.12c-.31-1.1-.93-2.73-.93-2.73.46.08 2.77.37 2.57-.19-1.74-4.63-3.67-9.78-6.37-14a.14.14 0 0 0-.25.12c1.49 4.51 3.77 8.73 5.34 13.24a9 9 0 0 0-2.49 0c-.14.09 1.25 3.12 1.35 3.62v.06c-1.76.8-3.31.67-5.47 0-.17-.13-.25 0-.13.13Z" style="fill:#263238"/><path d="M164 193.3a6 6 0 0 1-1.75 2.48 2.78 2.78 0 0 1-1.53.58c-1.22 0-1.57-1-1.64-1.93a6.25 6.25 0 0 1 .09-1.52 7.76 7.76 0 0 0 4.83.39Z" style="fill:#263238"/><path d="M162.25 195.78a2.78 2.78 0 0 1-1.53.58c-1.22 0-1.57-1-1.64-1.93a2.77 2.77 0 0 1 3.17 1.35Z" style="fill:#ff9abb"/><path d="M157.19 184c0-.05-.09.1-.07.15.43 1.41.69 3.1-.46 3.92v.08c1.54-.7 1.17-2.93.53-4.15Z" style="fill:#263238"/><path d="M155.52 182.82c-2.33.46-1.25 5.09.91 4.67s1.04-5.05-.91-4.67ZM165.41 181.46c0-.06.12 0 .14.1.27 1.45.83 3.06 2.24 3.24 0 0 .06.08 0 .09-1.63.11-2.35-2.02-2.38-3.43Z" style="fill:#263238"/><path d="M166.35 179.67c2.27-.69 3.49 3.9 1.39 4.54s-3.29-3.96-1.39-4.54ZM140.88 197.15c1.17-.29 1.65-4.72 2.27-5s1.52-1.2 1.52-1.69-2-8-2.19-12.06 2.67-8.2 6.53-8.92 7 2.16 9.56 1.14 2.77-4 4.55-4 4.09 2.41 5.31 4.8c-2.18-4.56-4.58-8-6.68-9.16-9.63-5.07-24.67.4-26.36 11.85-.68 4.65 2.22 15.42 5.49 23.04Z" style="fill:#263238"/><path d="M156.76 192.79a6.36 6.36 0 1 1 4.36-9.06 6.36 6.36 0 0 1-4.36 9.06Zm-2.5-11.62a5.76 5.76 0 0 0-1.3.46 5.5 5.5 0 1 0 1.3-.46ZM170.26 188.07c-2.41.4-5-1.7-5.91-4.89a7.66 7.66 0 0 1 .06-4.65 4 4 0 0 1 6.52-1.88 7.61 7.61 0 0 1 2.53 3.9c1 3.38-.29 6.71-2.8 7.43a2.88 2.88 0 0 1-.4.09Zm-2.57-11.57a1.73 1.73 0 0 0-.31.07 3.41 3.41 0 0 0-2.17 2.25 6.72 6.72 0 0 0 0 4.12c.84 2.92 3.19 4.82 5.26 4.22s3-3.45 2.21-6.37a6.82 6.82 0 0 0-2.23-3.47 3.51 3.51 0 0 0-2.76-.82Z" style="fill:#112b3c"/><path d="m161.15 184.5-.72-.44c.65-1.08 2.41-2.83 4.42-1.76l-.4.75c-1.8-.96-3.24 1.35-3.3 1.45ZM134.84 195.21l-.84-.13c.06-.39.62-3.86 2.32-4.76s12.73-3.52 13.2-3.63l.2.83c-3.19.76-11.77 2.89-13 3.55s-1.72 3.19-1.88 4.14Z" style="fill:#112b3c"/><path d="M143.18 192.15s-6-6.08-8.84-3.82 2.5 11.64 6.41 12.37a3.78 3.78 0 0 0 4.66-2.86Z" style="fill:#c95f50"/><path d="M135.93 191a.05.05 0 0 0 0 .1c2.76.6 4.52 2.76 5.9 5.08a2.09 2.09 0 0 0-3.19 0c0 .06 0 .15.1.13a2.32 2.32 0 0 1 2.67.37 11.88 11.88 0 0 1 1.56 1.83c.16.21.55 0 .42-.23v-.06c-.53-3.35-3.87-7.51-7.46-7.22Z" style="fill:#263238"/><path d="M124.73 236.7c-11.69 37.23-8.92 66.62-2.91 71 16.19 11.79 60.55-2.05 72.86-4.34 5-.93-12-40.26-17.18-38.65-12.17 3.81-29.42 10.71-30.06 10.56-1.27-.3-1.51-10.22-4.47-39.44-2.4-23.64-13.46-14.35-18.24.87Z" style="fill:#c95f50"/><path d="M239.75 254.48c.57 4.94-11.74 5.31-11.74 5.31a9.17 9.17 0 0 1 4.26 4.56c1.32 3.55-3.65 7.17-3.65 7.17a11.34 11.34 0 0 1 3.72 5.53c.93 3.52-3.57 7.9-3.57 7.9a9.9 9.9 0 0 1 .21 6.93c-2.28 5.95-12 7.14-17.9 9.07-6.3 2.06-16.25 1.82-21 3.25l-14.68-37.85s21.21-17.3 32.25-19c6.16-.91 31.23-.43 32.1 7.13Z" style="fill:#c95f50"/><path d="M227.89 259.66c-6.67-1.17-13.6-.74-20.29-.25a.12.12 0 0 0 0 .24c6.64-.57 13.6.63 20.26.33a.16.16 0 0 0 .03-.32ZM228.38 271a17.86 17.86 0 0 0-4.61.25c-1.62.2-3.24.43-4.85.69-3.24.51-6.46 1.09-9.67 1.76-.14 0-.13.26 0 .23 3.23-.5 6.46-1 9.7-1.31 1.63-.19 3.25-.35 4.88-.51a21.27 21.27 0 0 0 4.57-.66.24.24 0 0 0-.02-.45ZM228.63 285a12.17 12.17 0 0 0-4.14.44c-1.47.26-2.94.52-4.41.76-2.94.5-5.89 1-8.85 1.38-.14 0-.12.25 0 .23 3-.38 6-.72 9-1.13l4.43-.62a11.57 11.57 0 0 0 3.95-.92.08.08 0 0 0 .02-.14ZM147.44 275.27l7.41-2.93 7.46-2.82 7.49-2.7 3.77-1.31a35 35 0 0 1 3.9-1.16l-.19.08c4.53-3.31 9.11-6.53 13.86-9.49 2.38-1.48 4.78-2.92 7.27-4.22 1.24-.64 2.5-1.25 3.8-1.8a18.58 18.58 0 0 1 4-1.25 18.49 18.49 0 0 0-3.94 1.4c-1.26.6-2.49 1.25-3.7 1.94-2.43 1.38-4.8 2.85-7.14 4.38-4.65 3.09-9.25 6.27-13.71 9.61l-.06.05h-.13c-1.17.25-2.49.74-3.73 1.13l-3.8 1.3-7.51 2.62-7.49 2.61Z" style="fill:#263238"/><path d="m113.93 269 32.45-11.32s-1.63-17.2-3.87-26.58c-3-12.43-8.28-14.24-15.57-.38C122.07 240 113.93 269 113.93 269Z" style="fill:#c7c7c7"/><path d="M116.15 264.77c4.61-2 9.23-3.88 13.95-5.58 2.35-.85 4.72-1.66 7.09-2.44s4.84-1.31 7.2-2.12c.13 0 .19.17.06.21-2.4.68-4.72 1.7-7.08 2.51s-4.73 1.64-7.08 2.49c-4.7 1.68-9.42 3.35-14.08 5.13-.13.03-.21-.15-.06-.2Z" style="fill:#263238"/><path d="M117.81 267.64c-1.26.54-2.54 1-3.82 1.54l-.35.14.1-.38c.54-2.06 1.06-4.14 1.67-6.18s1.17-4.11 1.83-6.14 1.28-4.07 2-6.08 1.43-4 2.24-6c-.56 2.06-1.15 4.11-1.75 6.16s-1.21 4.09-1.81 6.13-1.25 4.08-1.87 6.12-1.29 4.06-1.93 6.1l-.25-.24c1.31-.4 2.62-.81 3.94-1.17Z" style="fill:#263238"/><path d="M119.26 248.52c-.06 1-.21 2-.35 2.94s-.34 1.94-.6 2.89c.06-1 .21-2 .35-2.93s.34-1.94.6-2.9ZM142.42 259.06c.33-.18 3.62-1.46 3.89-1.48-.25-2-.51-4-.73-6-.11-1-.21-2-.28-3s-.25-2.38-.32-3.37a.11.11 0 1 1 .21 0c.22 1.28.35 2.23.54 3.34s.32 2 .44 3c.26 2.1.64 4.32.8 6.43a32.94 32.94 0 0 1-4.51 1.35c-.06-.14-.09-.24-.04-.27ZM146.51 246.72a12.55 12.55 0 0 1-.12 1.84 11.25 11.25 0 0 1-.36 1.8 13.92 13.92 0 0 1 .48-3.64Z" style="fill:#263238"/><path transform="rotate(-89.74 225.456 306.246)" style="fill:#c7c7c7" d="M223.47 261.55h4.01v89.4h-4.01z"/><path style="fill:#a6a6a6" d="m199.91 304.13-3.07 3.99 73.33.34.02-4.01-70.28-.32z"/><path style="fill:#c7c7c7" d="m203.72 308.15 87.13.4 7.52-59.14-87.12-.4-7.53 59.14z"/><path d="M245.74 278.76a5.19 5.19 0 0 0 5.19 5.32 5.41 5.41 0 0 0 5.42-5.27 5.19 5.19 0 0 0-5.19-5.33 5.43 5.43 0 0 0-5.42 5.28Z" style="fill:#fff"/><path d="M297.64 255.13c3.26 5.09 11.34 11.05 12.43 15.4a5.14 5.14 0 0 1-2.14 5.76s4.69 1.64 5 5.75c.17 2.12-3 4.26-3 4.26s3.7 1.48 3.78 5.16c.06 2.93-3.18 4.63-3.18 4.63s2.89 3.07 2 6.08c-1.81 6.09-26.76 9.28-31.79.57-2.34-4.05 3.79-4.5 3.79-4.5s-9-1.49-9.76-6.62 7.23-5.22 7.23-5.22-8.69-1.52-9-6.92c-.3-5.62 7.73-4.35 7.73-4.35s-6-3.05-5.29-7.24c1.21-6.9 15.4.51 20.71-1.49Z" style="fill:#c95f50"/><path d="M310 296.44a.06.06 0 0 1 0 .12c-7.95 3.05-17.62 4-25.9 1.75-.27-.08-.27-.55 0-.53a89.48 89.48 0 0 0 25.9-1.34ZM310 286.34a.09.09 0 0 1 0 .17c-8.22 3.1-19.14 3.82-28.38.15-.32-.12-.47-.56-.1-.44 6.4 1.98 20.56 1.83 28.48.12ZM280.13 274.65c9 3.18 18.11 3.16 27.47 1.79.12 0 .13.15 0 .19-4.39 1.92-10.44 2.17-15.17 2A25.18 25.18 0 0 1 280 275c-.13-.12-.06-.42.13-.35Z" style="fill:#263238"/></svg>