<svg width="20" height="20" fill="none" xmlns="http://www.w3.org/2000/svg"><path d="m10 15.217-5.878 3.29L5.435 11.9.489 7.327l6.689-.794L10 .417l2.821 6.116 6.69.794-4.946 4.573 1.312 6.607L10 15.217Z" fill="#F66B0E"/><path fill-rule="evenodd" clip-rule="evenodd" d="M8.444 1.03c.588-1.373 2.524-1.373 3.112 0l1.764 4.116a.848.848 0 0 0 .7.51l4.44.415c1.48.138 2.079 1.989.962 2.975l-3.35 2.958a.854.854 0 0 0-.268.827l.98 4.372c.328 1.458-1.239 2.602-2.517 1.839l-3.834-2.288a.844.844 0 0 0-.866 0l-3.834 2.288c-1.278.763-2.845-.38-2.518-1.839l.98-4.372a.854.854 0 0 0-.267-.827L.578 9.046C-.539 8.06.06 6.21 1.54 6.071l4.44-.414a.848.848 0 0 0 .7-.511l1.764-4.117ZM10 1.702 8.236 5.82a2.543 2.543 0 0 1-2.1 1.534l-4.44.414 3.35 2.958a2.562 2.562 0 0 1 .803 2.48l-.98 4.373 3.833-2.289a2.53 2.53 0 0 1 2.596 0l3.834 2.289-.98-4.372a2.563 2.563 0 0 1 .801-2.481l3.35-2.958-4.44-.414a2.543 2.543 0 0 1-2.1-1.534L10 1.703Z" fill="#F66B0E"/></svg>